<svg width="103" height="94" viewBox="0 0 103 94" fill="none" xmlns="http://www.w3.org/2000/svg">
<mask id="path-1-outside-1_20_7" maskUnits="userSpaceOnUse" x="0" y="0" width="103" height="94" fill="black">
<rect fill="white" width="103" height="94"/>
<path d="M36 85.1875V93H1.6875V85.1875H5.9375C8.22917 85.1875 10.0417 84.7708 11.375 83.9375C12.75 83.0625 13.4375 80.9167 13.4375 77.5V16.5625C13.4375 13.4375 12.7708 11.4792 11.4375 10.6875C10.1458 9.85417 8.6875 9.4375 7.0625 9.4375H1.6875V1.625H33.8125L78.5 60.375V16.5625C78.5 13.9375 77.8958 12.1042 76.6875 11.0625C75.4792 9.97917 74.0208 9.4375 72.3125 9.4375H66.8125V1.625H101.125V9.4375H95.625C93.6667 9.4375 92.125 10.0417 91 11.25C89.9167 12.4167 89.375 14.375 89.375 17.125V93H75.6875L24.3125 24.75V77.5C24.3125 80.9167 24.7917 83.0625 25.75 83.9375C26.7083 84.7708 28.2917 85.1875 30.5 85.1875H36Z"/>
</mask>
<path d="M36 85.1875V93H1.6875V85.1875H5.9375C8.22917 85.1875 10.0417 84.7708 11.375 83.9375C12.75 83.0625 13.4375 80.9167 13.4375 77.5V16.5625C13.4375 13.4375 12.7708 11.4792 11.4375 10.6875C10.1458 9.85417 8.6875 9.4375 7.0625 9.4375H1.6875V1.625H33.8125L78.5 60.375V16.5625C78.5 13.9375 77.8958 12.1042 76.6875 11.0625C75.4792 9.97917 74.0208 9.4375 72.3125 9.4375H66.8125V1.625H101.125V9.4375H95.625C93.6667 9.4375 92.125 10.0417 91 11.25C89.9167 12.4167 89.375 14.375 89.375 17.125V93H75.6875L24.3125 24.75V77.5C24.3125 80.9167 24.7917 83.0625 25.75 83.9375C26.7083 84.7708 28.2917 85.1875 30.5 85.1875H36Z" fill="url(#paint0_linear_20_7)"/>
<g clip-path="url(#paint1_diamond_20_7_clip_path)" data-figma-skip-parse="true" mask="url(#path-1-outside-1_20_7)"><g transform="matrix(0.000193309 0.15485 -0.102143 0.00115639 50.8067 -26.85)"><rect x="0" y="0" width="1010.33" height="520.88" fill="url(#paint1_diamond_20_7)" opacity="1" shape-rendering="crispEdges"/><rect x="0" y="0" width="1010.33" height="520.88" transform="scale(1 -1)" fill="url(#paint1_diamond_20_7)" opacity="1" shape-rendering="crispEdges"/><rect x="0" y="0" width="1010.33" height="520.88" transform="scale(-1 1)" fill="url(#paint1_diamond_20_7)" opacity="1" shape-rendering="crispEdges"/><rect x="0" y="0" width="1010.33" height="520.88" transform="scale(-1)" fill="url(#paint1_diamond_20_7)" opacity="1" shape-rendering="crispEdges"/></g></g><path d="M36 85.1875H37V84.1875H36V85.1875ZM36 93V94H37V93H36ZM1.6875 93H0.6875V94H1.6875V93ZM1.6875 85.1875V84.1875H0.6875V85.1875H1.6875ZM11.375 83.9375L11.905 84.7855L11.9119 84.7812L11.375 83.9375ZM11.4375 10.6875L10.8954 11.5278L10.911 11.5379L10.927 11.5474L11.4375 10.6875ZM1.6875 9.4375H0.6875V10.4375H1.6875V9.4375ZM1.6875 1.625V0.625H0.6875V1.625H1.6875ZM33.8125 1.625L34.6084 1.01959L34.3083 0.625H33.8125V1.625ZM78.5 60.375L77.7041 60.9804L79.5 63.3415V60.375H78.5ZM76.6875 11.0625L76.02 11.8071L76.0272 11.8136L76.0346 11.8199L76.6875 11.0625ZM66.8125 9.4375H65.8125V10.4375H66.8125V9.4375ZM66.8125 1.625V0.625H65.8125V1.625H66.8125ZM101.125 1.625H102.125V0.625H101.125V1.625ZM101.125 9.4375V10.4375H102.125V9.4375H101.125ZM91 11.25L90.2681 10.5686L90.2672 10.5695L91 11.25ZM89.375 93V94H90.375V93H89.375ZM75.6875 93L74.8886 93.6014L75.1886 94H75.6875V93ZM24.3125 24.75L25.1114 24.1486L23.3125 21.7588V24.75H24.3125ZM25.75 83.9375L25.0757 84.676L25.0847 84.6842L25.0938 84.6921L25.75 83.9375ZM36 85.1875H35V93H36H37V85.1875H36ZM36 93V92H1.6875V93V94H36V93ZM1.6875 93H2.6875V85.1875H1.6875H0.6875V93H1.6875ZM1.6875 85.1875V86.1875H5.9375V85.1875V84.1875H1.6875V85.1875ZM5.9375 85.1875V86.1875C8.33576 86.1875 10.3559 85.7537 11.905 84.7855L11.375 83.9375L10.845 83.0895C9.72748 83.788 8.12258 84.1875 5.9375 84.1875V85.1875ZM11.375 83.9375L11.9119 84.7812C12.8603 84.1776 13.4862 83.1879 13.8742 81.977C14.2614 80.7685 14.4375 79.2642 14.4375 77.5H13.4375H12.4375C12.4375 79.1525 12.2699 80.4294 11.9696 81.3668C11.67 82.3017 11.2647 82.8224 10.8381 83.0938L11.375 83.9375ZM13.4375 77.5H14.4375V16.5625H13.4375H12.4375V77.5H13.4375ZM13.4375 16.5625H14.4375C14.4375 14.9405 14.266 13.5493 13.8841 12.4277C13.5 11.2992 12.8793 10.3806 11.948 9.82765L11.4375 10.6875L10.927 11.5474C11.3291 11.7861 11.7084 12.2425 11.9909 13.0723C12.2757 13.909 12.4375 15.0595 12.4375 16.5625H13.4375ZM11.4375 10.6875L11.9796 9.8472C10.5169 8.90354 8.86827 8.4375 7.0625 8.4375V9.4375V10.4375C8.50673 10.4375 9.77473 10.8048 10.8954 11.5278L11.4375 10.6875ZM7.0625 9.4375V8.4375H1.6875V9.4375V10.4375H7.0625V9.4375ZM1.6875 9.4375H2.6875V1.625H1.6875H0.6875V9.4375H1.6875ZM1.6875 1.625V2.625H33.8125V1.625V0.625H1.6875V1.625ZM33.8125 1.625L33.0166 2.23041L77.7041 60.9804L78.5 60.375L79.2959 59.7696L34.6084 1.01959L33.8125 1.625ZM78.5 60.375H79.5V16.5625H78.5H77.5V60.375H78.5ZM78.5 16.5625H79.5C79.5 13.8293 78.8775 11.6302 77.3404 10.3051L76.6875 11.0625L76.0346 11.8199C76.9141 12.5782 77.5 14.0457 77.5 16.5625H78.5ZM76.6875 11.0625L77.355 10.3179C75.953 9.06089 74.253 8.4375 72.3125 8.4375V9.4375V10.4375C73.7886 10.4375 75.0054 10.8974 76.02 11.8071L76.6875 11.0625ZM72.3125 9.4375V8.4375H66.8125V9.4375V10.4375H72.3125V9.4375ZM66.8125 9.4375H67.8125V1.625H66.8125H65.8125V9.4375H66.8125ZM66.8125 1.625V2.625H101.125V1.625V0.625H66.8125V1.625ZM101.125 1.625H100.125V9.4375H101.125H102.125V1.625H101.125ZM101.125 9.4375V8.4375H95.625V9.4375V10.4375H101.125V9.4375ZM95.625 9.4375V8.4375C93.4452 8.4375 91.6174 9.11932 90.2681 10.5686L91 11.25L91.7319 11.9314C92.6326 10.964 93.8881 10.4375 95.625 10.4375V9.4375ZM91 11.25L90.2672 10.5695C88.9241 12.016 88.375 14.2916 88.375 17.125H89.375H90.375C90.375 14.4584 90.9092 12.8174 91.7328 11.9305L91 11.25ZM89.375 17.125H88.375V93H89.375H90.375V17.125H89.375ZM89.375 93V92H75.6875V93V94H89.375V93ZM75.6875 93L76.4864 92.3986L25.1114 24.1486L24.3125 24.75L23.5136 25.3514L74.8886 93.6014L75.6875 93ZM24.3125 24.75H23.3125V77.5H24.3125H25.3125V24.75H24.3125ZM24.3125 77.5H23.3125C23.3125 79.2461 23.4341 80.7174 23.6959 81.8898C23.9524 83.0383 24.3721 84.0335 25.0757 84.676L25.75 83.9375L26.4243 83.199C26.1696 82.9665 25.8705 82.4513 25.6478 81.4539C25.4305 80.4805 25.3125 79.1706 25.3125 77.5H24.3125ZM25.75 83.9375L25.0938 84.6921C26.3275 85.7648 28.2126 86.1875 30.5 86.1875V85.1875V84.1875C28.3707 84.1875 27.0892 83.7768 26.4062 83.1829L25.75 83.9375ZM30.5 85.1875V86.1875H36V85.1875V84.1875H30.5V85.1875Z" data-figma-gradient-fill="{&#34;type&#34;:&#34;GRADIENT_DIAMOND&#34;,&#34;stops&#34;:[{&#34;color&#34;:{&#34;r&#34;:0.0,&#34;g&#34;:0.60784316062927246,&#34;b&#34;:1.0,&#34;a&#34;:1.0},&#34;position&#34;:0.13942307233810425},{&#34;color&#34;:{&#34;r&#34;:0.40000000596046448,&#34;g&#34;:0.40000000596046448,&#34;b&#34;:0.40000000596046448,&#34;a&#34;:1.0},&#34;position&#34;:0.83058923482894897}],&#34;stopsVar&#34;:[{&#34;color&#34;:{&#34;r&#34;:0.0,&#34;g&#34;:0.60784316062927246,&#34;b&#34;:1.0,&#34;a&#34;:1.0},&#34;position&#34;:0.13942307233810425},{&#34;color&#34;:{&#34;r&#34;:0.40000000596046448,&#34;g&#34;:0.40000000596046448,&#34;b&#34;:0.40000000596046448,&#34;a&#34;:1.0},&#34;position&#34;:0.83058923482894897}],&#34;transform&#34;:{&#34;m00&#34;:0.38661709427833557,&#34;m01&#34;:-204.28500366210938,&#34;m02&#34;:152.75587463378906,&#34;m10&#34;:309.69998168945312,&#34;m11&#34;:2.3127748966217041,&#34;m12&#34;:-182.85638427734375},&#34;opacity&#34;:1.0,&#34;blendMode&#34;:&#34;NORMAL&#34;,&#34;visible&#34;:true}" mask="url(#path-1-outside-1_20_7)"/>
<defs>
<clipPath id="paint1_diamond_20_7_clip_path"><path d="M36 85.1875H37V84.1875H36V85.1875ZM36 93V94H37V93H36ZM1.6875 93H0.6875V94H1.6875V93ZM1.6875 85.1875V84.1875H0.6875V85.1875H1.6875ZM11.375 83.9375L11.905 84.7855L11.9119 84.7812L11.375 83.9375ZM11.4375 10.6875L10.8954 11.5278L10.911 11.5379L10.927 11.5474L11.4375 10.6875ZM1.6875 9.4375H0.6875V10.4375H1.6875V9.4375ZM1.6875 1.625V0.625H0.6875V1.625H1.6875ZM33.8125 1.625L34.6084 1.01959L34.3083 0.625H33.8125V1.625ZM78.5 60.375L77.7041 60.9804L79.5 63.3415V60.375H78.5ZM76.6875 11.0625L76.02 11.8071L76.0272 11.8136L76.0346 11.8199L76.6875 11.0625ZM66.8125 9.4375H65.8125V10.4375H66.8125V9.4375ZM66.8125 1.625V0.625H65.8125V1.625H66.8125ZM101.125 1.625H102.125V0.625H101.125V1.625ZM101.125 9.4375V10.4375H102.125V9.4375H101.125ZM91 11.25L90.2681 10.5686L90.2672 10.5695L91 11.25ZM89.375 93V94H90.375V93H89.375ZM75.6875 93L74.8886 93.6014L75.1886 94H75.6875V93ZM24.3125 24.75L25.1114 24.1486L23.3125 21.7588V24.75H24.3125ZM25.75 83.9375L25.0757 84.676L25.0847 84.6842L25.0938 84.6921L25.75 83.9375ZM36 85.1875H35V93H36H37V85.1875H36ZM36 93V92H1.6875V93V94H36V93ZM1.6875 93H2.6875V85.1875H1.6875H0.6875V93H1.6875ZM1.6875 85.1875V86.1875H5.9375V85.1875V84.1875H1.6875V85.1875ZM5.9375 85.1875V86.1875C8.33576 86.1875 10.3559 85.7537 11.905 84.7855L11.375 83.9375L10.845 83.0895C9.72748 83.788 8.12258 84.1875 5.9375 84.1875V85.1875ZM11.375 83.9375L11.9119 84.7812C12.8603 84.1776 13.4862 83.1879 13.8742 81.977C14.2614 80.7685 14.4375 79.2642 14.4375 77.5H13.4375H12.4375C12.4375 79.1525 12.2699 80.4294 11.9696 81.3668C11.67 82.3017 11.2647 82.8224 10.8381 83.0938L11.375 83.9375ZM13.4375 77.5H14.4375V16.5625H13.4375H12.4375V77.5H13.4375ZM13.4375 16.5625H14.4375C14.4375 14.9405 14.266 13.5493 13.8841 12.4277C13.5 11.2992 12.8793 10.3806 11.948 9.82765L11.4375 10.6875L10.927 11.5474C11.3291 11.7861 11.7084 12.2425 11.9909 13.0723C12.2757 13.909 12.4375 15.0595 12.4375 16.5625H13.4375ZM11.4375 10.6875L11.9796 9.8472C10.5169 8.90354 8.86827 8.4375 7.0625 8.4375V9.4375V10.4375C8.50673 10.4375 9.77473 10.8048 10.8954 11.5278L11.4375 10.6875ZM7.0625 9.4375V8.4375H1.6875V9.4375V10.4375H7.0625V9.4375ZM1.6875 9.4375H2.6875V1.625H1.6875H0.6875V9.4375H1.6875ZM1.6875 1.625V2.625H33.8125V1.625V0.625H1.6875V1.625ZM33.8125 1.625L33.0166 2.23041L77.7041 60.9804L78.5 60.375L79.2959 59.7696L34.6084 1.01959L33.8125 1.625ZM78.5 60.375H79.5V16.5625H78.5H77.5V60.375H78.5ZM78.5 16.5625H79.5C79.5 13.8293 78.8775 11.6302 77.3404 10.3051L76.6875 11.0625L76.0346 11.8199C76.9141 12.5782 77.5 14.0457 77.5 16.5625H78.5ZM76.6875 11.0625L77.355 10.3179C75.953 9.06089 74.253 8.4375 72.3125 8.4375V9.4375V10.4375C73.7886 10.4375 75.0054 10.8974 76.02 11.8071L76.6875 11.0625ZM72.3125 9.4375V8.4375H66.8125V9.4375V10.4375H72.3125V9.4375ZM66.8125 9.4375H67.8125V1.625H66.8125H65.8125V9.4375H66.8125ZM66.8125 1.625V2.625H101.125V1.625V0.625H66.8125V1.625ZM101.125 1.625H100.125V9.4375H101.125H102.125V1.625H101.125ZM101.125 9.4375V8.4375H95.625V9.4375V10.4375H101.125V9.4375ZM95.625 9.4375V8.4375C93.4452 8.4375 91.6174 9.11932 90.2681 10.5686L91 11.25L91.7319 11.9314C92.6326 10.964 93.8881 10.4375 95.625 10.4375V9.4375ZM91 11.25L90.2672 10.5695C88.9241 12.016 88.375 14.2916 88.375 17.125H89.375H90.375C90.375 14.4584 90.9092 12.8174 91.7328 11.9305L91 11.25ZM89.375 17.125H88.375V93H89.375H90.375V17.125H89.375ZM89.375 93V92H75.6875V93V94H89.375V93ZM75.6875 93L76.4864 92.3986L25.1114 24.1486L24.3125 24.75L23.5136 25.3514L74.8886 93.6014L75.6875 93ZM24.3125 24.75H23.3125V77.5H24.3125H25.3125V24.75H24.3125ZM24.3125 77.5H23.3125C23.3125 79.2461 23.4341 80.7174 23.6959 81.8898C23.9524 83.0383 24.3721 84.0335 25.0757 84.676L25.75 83.9375L26.4243 83.199C26.1696 82.9665 25.8705 82.4513 25.6478 81.4539C25.4305 80.4805 25.3125 79.1706 25.3125 77.5H24.3125ZM25.75 83.9375L25.0938 84.6921C26.3275 85.7648 28.2126 86.1875 30.5 86.1875V85.1875V84.1875C28.3707 84.1875 27.0892 83.7768 26.4062 83.1829L25.75 83.9375ZM30.5 85.1875V86.1875H36V85.1875V84.1875H30.5V85.1875Z" mask="url(#path-1-outside-1_20_7)"/></clipPath><linearGradient id="paint0_linear_20_7" x1="103" y1="46.5093" x2="-1" y2="46.4887" gradientUnits="userSpaceOnUse">
<stop stop-color="#0096F9"/>
<stop offset="0.497574" stop-color="#88C6FF"/>
<stop offset="0.913462" stop-color="#0082FF"/>
</linearGradient>
<linearGradient id="paint1_diamond_20_7" x1="0" y1="0" x2="500" y2="500" gradientUnits="userSpaceOnUse">
<stop offset="0.139423" stop-color="#009BFF"/>
<stop offset="0.830589" stop-color="#666666"/>
</linearGradient>
</defs>
</svg>
