<?xml version="1.0" standalone="no"?>
<svg xmlns="http://www.w3.org/2000/svg" viewBox="0 0 1440 320">
    <defs>
        <linearGradient id="headerGradient" x1="0%" y1="0%" x2="100%" y2="0%">
            <stop offset="0%" style="stop-color:oklch(0.13 0.01 0); stop-opacity:1" />
            <stop offset="100%" style="stop-color:oklch(0.29 0.01 0); stop-opacity:1" />
        </linearGradient>
    </defs>
    <path fill="url(#headerGradient)" fill-opacity="1" d="M0,32L60,48C120,64,240,96,360,106.7C480,117,600,107,720,112C840,117,960,139,1080,133.3C1200,128,1320,96,1380,80L1440,64L1440,0L1380,0C1320,0,1200,0,1080,0C960,0,840,0,720,0C600,0,480,0,360,0C240,0,120,0,60,0L0,0Z">
    </path>
</svg>
