<svg width="229" height="95" viewBox="0 0 229 95" fill="none" xmlns="http://www.w3.org/2000/svg">
<mask id="path-1-outside-1_17_2" maskUnits="userSpaceOnUse" x="0" y="0" width="229" height="95" fill="black">
<rect fill="white" width="229" height="95"/>
<path d="M36 85.1875V93H1.6875V85.1875H5.9375C8.22917 85.1875 10.0417 84.7708 11.375 83.9375C12.75 83.0625 13.4375 80.9167 13.4375 77.5V16.5625C13.4375 13.4375 12.7708 11.4792 11.4375 10.6875C10.1458 9.85417 8.6875 9.4375 7.0625 9.4375H1.6875V1.625H33.8125L78.5 60.375V16.5625C78.5 13.9375 77.8958 12.1042 76.6875 11.0625C75.4792 9.97917 74.0208 9.4375 72.3125 9.4375H66.8125V1.625H101.125V9.4375H95.625C93.6667 9.4375 92.125 10.0417 91 11.25C89.9167 12.4167 89.375 14.375 89.375 17.125V93H75.6875L24.3125 24.75V77.5C24.3125 80.9167 24.7917 83.0625 25.75 83.9375C26.7083 84.7708 28.2917 85.1875 30.5 85.1875H36ZM117.781 93.8438C115.156 93.8438 112.953 93.2344 111.172 92.0156C109.422 90.7656 108.547 88.5312 108.547 85.3125C108.547 82.0625 109.422 79.8281 111.172 78.6094C112.953 77.3906 115.156 76.7812 117.781 76.7812C120.188 76.7812 122.312 77.3906 124.156 78.6094C126.031 79.8281 126.969 82.0625 126.969 85.3125C126.969 88.5312 126.031 90.7656 124.156 92.0156C122.312 93.2344 120.188 93.8438 117.781 93.8438ZM152.516 93.9375C149.734 93.9375 147.203 93.3594 144.922 92.2031C142.609 91.0781 140.766 89.3438 139.391 87C138.016 84.6562 137.328 81.7031 137.328 78.1406C137.328 72.8281 139.078 68.9219 142.578 66.4219C146.109 63.9219 151.438 62.5469 158.562 62.2969L166.297 61.9688V57C166.297 53.5 165.891 50.9062 165.078 49.2188C164.234 47.5625 162.984 46.7344 161.328 46.7344C159.797 46.7344 158.594 47.5938 157.719 49.3125C156.812 51.0625 156.359 53.625 156.359 57C151.328 57 147.562 56.4844 145.062 55.4531C142.594 54.4219 141.359 52.7031 141.359 50.2969C141.359 47.8594 142.344 45.8906 144.312 44.3906C146.25 42.8906 148.844 41.8125 152.094 41.1562C155.375 40.4688 159 40.125 162.969 40.125C170.312 40.125 175.828 41.3281 179.516 43.7344C183.203 46.1094 185.047 50.2812 185.047 56.25V80.4375C185.047 83.0625 185.438 84.8438 186.219 85.7812C187.031 86.6875 188.531 87.1406 190.719 87.1406H191.094V93H169.672L167.281 87.6094H166.297C164.859 89.2656 163.531 90.5625 162.312 91.5C161.094 92.4375 159.703 93.0781 158.141 93.4219C156.609 93.7656 154.734 93.9375 152.516 93.9375ZM160.062 86.2031C162 86.2031 163.547 85.1562 164.703 83.0625C165.859 80.9688 166.438 78.1719 166.438 74.6719V67.8281L163.438 68.1562C160.75 68.3438 158.891 69.2812 157.859 70.9688C156.859 72.6562 156.359 75.1406 156.359 78.4219C156.359 83.6094 157.594 86.2031 160.062 86.2031ZM210.688 33.5625C207.812 33.5625 205.391 32.9062 203.422 31.5938C201.484 30.2812 200.516 28.4062 200.516 25.9688C200.516 23.4375 201.484 21.5469 203.422 20.2969C205.391 19.0469 207.812 18.4219 210.688 18.4219C213.438 18.4219 215.828 19.0469 217.859 20.2969C219.922 21.5469 220.953 23.4375 220.953 25.9688C220.953 28.4062 219.922 30.2812 217.859 31.5938C215.828 32.9062 213.438 33.5625 210.688 33.5625ZM227.609 87.1406V93H194.656V87.1406H195.828C197.609 87.1406 199.062 86.6406 200.188 85.6406C201.312 84.6094 201.875 82.75 201.875 80.0625V53.7188C201.875 51.375 201.297 49.7344 200.141 48.7969C198.984 47.8594 197.547 47.3906 195.828 47.3906H194V41.5312H220.484V80.4375C220.484 83 221.047 84.7656 222.172 85.7344C223.297 86.6719 224.75 87.1406 226.531 87.1406H227.609Z"/>
</mask>
<path d="M36 85.1875V93H1.6875V85.1875H5.9375C8.22917 85.1875 10.0417 84.7708 11.375 83.9375C12.75 83.0625 13.4375 80.9167 13.4375 77.5V16.5625C13.4375 13.4375 12.7708 11.4792 11.4375 10.6875C10.1458 9.85417 8.6875 9.4375 7.0625 9.4375H1.6875V1.625H33.8125L78.5 60.375V16.5625C78.5 13.9375 77.8958 12.1042 76.6875 11.0625C75.4792 9.97917 74.0208 9.4375 72.3125 9.4375H66.8125V1.625H101.125V9.4375H95.625C93.6667 9.4375 92.125 10.0417 91 11.25C89.9167 12.4167 89.375 14.375 89.375 17.125V93H75.6875L24.3125 24.75V77.5C24.3125 80.9167 24.7917 83.0625 25.75 83.9375C26.7083 84.7708 28.2917 85.1875 30.5 85.1875H36ZM117.781 93.8438C115.156 93.8438 112.953 93.2344 111.172 92.0156C109.422 90.7656 108.547 88.5312 108.547 85.3125C108.547 82.0625 109.422 79.8281 111.172 78.6094C112.953 77.3906 115.156 76.7812 117.781 76.7812C120.188 76.7812 122.312 77.3906 124.156 78.6094C126.031 79.8281 126.969 82.0625 126.969 85.3125C126.969 88.5312 126.031 90.7656 124.156 92.0156C122.312 93.2344 120.188 93.8438 117.781 93.8438ZM152.516 93.9375C149.734 93.9375 147.203 93.3594 144.922 92.2031C142.609 91.0781 140.766 89.3438 139.391 87C138.016 84.6562 137.328 81.7031 137.328 78.1406C137.328 72.8281 139.078 68.9219 142.578 66.4219C146.109 63.9219 151.438 62.5469 158.562 62.2969L166.297 61.9688V57C166.297 53.5 165.891 50.9062 165.078 49.2188C164.234 47.5625 162.984 46.7344 161.328 46.7344C159.797 46.7344 158.594 47.5938 157.719 49.3125C156.812 51.0625 156.359 53.625 156.359 57C151.328 57 147.562 56.4844 145.062 55.4531C142.594 54.4219 141.359 52.7031 141.359 50.2969C141.359 47.8594 142.344 45.8906 144.312 44.3906C146.25 42.8906 148.844 41.8125 152.094 41.1562C155.375 40.4688 159 40.125 162.969 40.125C170.312 40.125 175.828 41.3281 179.516 43.7344C183.203 46.1094 185.047 50.2812 185.047 56.25V80.4375C185.047 83.0625 185.438 84.8438 186.219 85.7812C187.031 86.6875 188.531 87.1406 190.719 87.1406H191.094V93H169.672L167.281 87.6094H166.297C164.859 89.2656 163.531 90.5625 162.312 91.5C161.094 92.4375 159.703 93.0781 158.141 93.4219C156.609 93.7656 154.734 93.9375 152.516 93.9375ZM160.062 86.2031C162 86.2031 163.547 85.1562 164.703 83.0625C165.859 80.9688 166.438 78.1719 166.438 74.6719V67.8281L163.438 68.1562C160.75 68.3438 158.891 69.2812 157.859 70.9688C156.859 72.6562 156.359 75.1406 156.359 78.4219C156.359 83.6094 157.594 86.2031 160.062 86.2031ZM210.688 33.5625C207.812 33.5625 205.391 32.9062 203.422 31.5938C201.484 30.2812 200.516 28.4062 200.516 25.9688C200.516 23.4375 201.484 21.5469 203.422 20.2969C205.391 19.0469 207.812 18.4219 210.688 18.4219C213.438 18.4219 215.828 19.0469 217.859 20.2969C219.922 21.5469 220.953 23.4375 220.953 25.9688C220.953 28.4062 219.922 30.2812 217.859 31.5938C215.828 32.9062 213.438 33.5625 210.688 33.5625ZM227.609 87.1406V93H194.656V87.1406H195.828C197.609 87.1406 199.062 86.6406 200.188 85.6406C201.312 84.6094 201.875 82.75 201.875 80.0625V53.7188C201.875 51.375 201.297 49.7344 200.141 48.7969C198.984 47.8594 197.547 47.3906 195.828 47.3906H194V41.5312H220.484V80.4375C220.484 83 221.047 84.7656 222.172 85.7344C223.297 86.6719 224.75 87.1406 226.531 87.1406H227.609Z" fill="url(#paint0_linear_17_2)"/>
<g clip-path="url(#paint1_diamond_17_2_clip_path)" data-figma-skip-parse="true" mask="url(#path-1-outside-1_17_2)"><g transform="matrix(0.000429368 0.15485 -0.226874 0.00115639 114.071 -26.85)"><rect x="0" y="0" width="1010.29" height="515.498" fill="url(#paint1_diamond_17_2)" opacity="1" shape-rendering="crispEdges"/><rect x="0" y="0" width="1010.29" height="515.498" transform="scale(1 -1)" fill="url(#paint1_diamond_17_2)" opacity="1" shape-rendering="crispEdges"/><rect x="0" y="0" width="1010.29" height="515.498" transform="scale(-1 1)" fill="url(#paint1_diamond_17_2)" opacity="1" shape-rendering="crispEdges"/><rect x="0" y="0" width="1010.29" height="515.498" transform="scale(-1)" fill="url(#paint1_diamond_17_2)" opacity="1" shape-rendering="crispEdges"/></g></g><path d="M36 85.1875H37V84.1875H36V85.1875ZM36 93V94H37V93H36ZM1.6875 93H0.6875V94H1.6875V93ZM1.6875 85.1875V84.1875H0.6875V85.1875H1.6875ZM11.375 83.9375L11.905 84.7855L11.9119 84.7812L11.375 83.9375ZM11.4375 10.6875L10.8954 11.5278L10.911 11.5379L10.927 11.5474L11.4375 10.6875ZM1.6875 9.4375H0.6875V10.4375H1.6875V9.4375ZM1.6875 1.625V0.625H0.6875V1.625H1.6875ZM33.8125 1.625L34.6084 1.01959L34.3083 0.625H33.8125V1.625ZM78.5 60.375L77.7041 60.9804L79.5 63.3415V60.375H78.5ZM76.6875 11.0625L76.02 11.8071L76.0272 11.8136L76.0346 11.8199L76.6875 11.0625ZM66.8125 9.4375H65.8125V10.4375H66.8125V9.4375ZM66.8125 1.625V0.625H65.8125V1.625H66.8125ZM101.125 1.625H102.125V0.625H101.125V1.625ZM101.125 9.4375V10.4375H102.125V9.4375H101.125ZM91 11.25L90.2681 10.5686L90.2672 10.5695L91 11.25ZM89.375 93V94H90.375V93H89.375ZM75.6875 93L74.8886 93.6014L75.1886 94H75.6875V93ZM24.3125 24.75L25.1114 24.1486L23.3125 21.7588V24.75H24.3125ZM25.75 83.9375L25.0757 84.676L25.0847 84.6842L25.0938 84.6921L25.75 83.9375ZM36 85.1875H35V93H36H37V85.1875H36ZM36 93V92H1.6875V93V94H36V93ZM1.6875 93H2.6875V85.1875H1.6875H0.6875V93H1.6875ZM1.6875 85.1875V86.1875H5.9375V85.1875V84.1875H1.6875V85.1875ZM5.9375 85.1875V86.1875C8.33576 86.1875 10.3559 85.7537 11.905 84.7855L11.375 83.9375L10.845 83.0895C9.72748 83.788 8.12258 84.1875 5.9375 84.1875V85.1875ZM11.375 83.9375L11.9119 84.7812C12.8603 84.1776 13.4862 83.1879 13.8742 81.977C14.2614 80.7685 14.4375 79.2642 14.4375 77.5H13.4375H12.4375C12.4375 79.1525 12.2699 80.4294 11.9696 81.3668C11.67 82.3017 11.2647 82.8224 10.8381 83.0938L11.375 83.9375ZM13.4375 77.5H14.4375V16.5625H13.4375H12.4375V77.5H13.4375ZM13.4375 16.5625H14.4375C14.4375 14.9405 14.266 13.5493 13.8841 12.4277C13.5 11.2992 12.8793 10.3806 11.948 9.82765L11.4375 10.6875L10.927 11.5474C11.3291 11.7861 11.7084 12.2425 11.9909 13.0723C12.2757 13.909 12.4375 15.0595 12.4375 16.5625H13.4375ZM11.4375 10.6875L11.9796 9.8472C10.5169 8.90354 8.86827 8.4375 7.0625 8.4375V9.4375V10.4375C8.50673 10.4375 9.77473 10.8048 10.8954 11.5278L11.4375 10.6875ZM7.0625 9.4375V8.4375H1.6875V9.4375V10.4375H7.0625V9.4375ZM1.6875 9.4375H2.6875V1.625H1.6875H0.6875V9.4375H1.6875ZM1.6875 1.625V2.625H33.8125V1.625V0.625H1.6875V1.625ZM33.8125 1.625L33.0166 2.23041L77.7041 60.9804L78.5 60.375L79.2959 59.7696L34.6084 1.01959L33.8125 1.625ZM78.5 60.375H79.5V16.5625H78.5H77.5V60.375H78.5ZM78.5 16.5625H79.5C79.5 13.8293 78.8775 11.6302 77.3404 10.3051L76.6875 11.0625L76.0346 11.8199C76.9141 12.5782 77.5 14.0457 77.5 16.5625H78.5ZM76.6875 11.0625L77.355 10.3179C75.953 9.06089 74.253 8.4375 72.3125 8.4375V9.4375V10.4375C73.7886 10.4375 75.0054 10.8974 76.02 11.8071L76.6875 11.0625ZM72.3125 9.4375V8.4375H66.8125V9.4375V10.4375H72.3125V9.4375ZM66.8125 9.4375H67.8125V1.625H66.8125H65.8125V9.4375H66.8125ZM66.8125 1.625V2.625H101.125V1.625V0.625H66.8125V1.625ZM101.125 1.625H100.125V9.4375H101.125H102.125V1.625H101.125ZM101.125 9.4375V8.4375H95.625V9.4375V10.4375H101.125V9.4375ZM95.625 9.4375V8.4375C93.4452 8.4375 91.6174 9.11932 90.2681 10.5686L91 11.25L91.7319 11.9314C92.6326 10.964 93.8881 10.4375 95.625 10.4375V9.4375ZM91 11.25L90.2672 10.5695C88.9241 12.016 88.375 14.2916 88.375 17.125H89.375H90.375C90.375 14.4584 90.9092 12.8174 91.7328 11.9305L91 11.25ZM89.375 17.125H88.375V93H89.375H90.375V17.125H89.375ZM89.375 93V92H75.6875V93V94H89.375V93ZM75.6875 93L76.4864 92.3986L25.1114 24.1486L24.3125 24.75L23.5136 25.3514L74.8886 93.6014L75.6875 93ZM24.3125 24.75H23.3125V77.5H24.3125H25.3125V24.75H24.3125ZM24.3125 77.5H23.3125C23.3125 79.2461 23.4341 80.7174 23.6959 81.8898C23.9524 83.0383 24.3721 84.0335 25.0757 84.676L25.75 83.9375L26.4243 83.199C26.1696 82.9665 25.8705 82.4513 25.6478 81.4539C25.4305 80.4805 25.3125 79.1706 25.3125 77.5H24.3125ZM25.75 83.9375L25.0938 84.6921C26.3275 85.7648 28.2126 86.1875 30.5 86.1875V85.1875V84.1875C28.3707 84.1875 27.0892 83.7768 26.4062 83.1829L25.75 83.9375ZM30.5 85.1875V86.1875H36V85.1875V84.1875H30.5V85.1875ZM111.172 92.0156L110.591 92.8294L110.599 92.8352L110.607 92.8409L111.172 92.0156ZM111.172 78.6094L110.607 77.784L110.6 77.7888L111.172 78.6094ZM124.156 78.6094L123.605 79.4436L123.611 79.4478L124.156 78.6094ZM124.156 92.0156L124.708 92.8499L124.711 92.8477L124.156 92.0156ZM117.781 93.8438V92.8438C115.314 92.8438 113.318 92.2726 111.737 91.1903L111.172 92.0156L110.607 92.8409C112.588 94.1961 114.999 94.8438 117.781 94.8438V93.8438ZM111.172 92.0156L111.753 91.2019C110.378 90.2196 109.547 88.3762 109.547 85.3125H108.547H107.547C107.547 88.6863 108.466 91.3117 110.591 92.8294L111.172 92.0156ZM108.547 85.3125H109.547C109.547 82.2108 110.381 80.3787 111.743 79.43L111.172 78.6094L110.6 77.7888C108.463 79.2775 107.547 81.9142 107.547 85.3125H108.547ZM111.172 78.6094L111.737 79.4347C113.318 78.3524 115.314 77.7812 117.781 77.7812V76.7812V75.7812C114.999 75.7812 112.588 76.4289 110.607 77.7841L111.172 78.6094ZM117.781 76.7812V77.7812C120.01 77.7812 121.939 78.3426 123.605 79.4436L124.156 78.6094L124.708 77.7752C122.686 76.4387 120.365 75.7812 117.781 75.7812V76.7812ZM124.156 78.6094L123.611 79.4478C125.087 80.4072 125.969 82.2357 125.969 85.3125H126.969H127.969C127.969 81.8893 126.975 79.249 124.701 77.7709L124.156 78.6094ZM126.969 85.3125H125.969C125.969 88.3515 125.09 90.1909 123.602 91.1836L124.156 92.0156L124.711 92.8477C126.972 91.3403 127.969 88.711 127.969 85.3125H126.969ZM124.156 92.0156L123.605 91.1814C121.939 92.2824 120.01 92.8438 117.781 92.8438V93.8438V94.8438C120.365 94.8438 122.686 94.1863 124.708 92.8498L124.156 92.0156ZM144.922 92.2031L145.374 91.3112L145.367 91.3075L145.359 91.3039L144.922 92.2031ZM142.578 66.4219L142 65.6057L141.997 65.6081L142.578 66.4219ZM158.562 62.2969L158.598 63.2963L158.605 63.296L158.562 62.2969ZM166.297 61.9688L166.339 62.9679L167.297 62.9272V61.9688H166.297ZM165.078 49.2188L165.979 48.7849L165.974 48.7748L165.969 48.7648L165.078 49.2188ZM157.719 49.3125L158.607 49.7724L158.61 49.7662L157.719 49.3125ZM156.359 57V58H157.359V57H156.359ZM145.062 55.4531L144.677 56.3759L144.681 56.3776L145.062 55.4531ZM144.312 44.3906L144.919 45.1861L144.925 45.1813L144.312 44.3906ZM152.094 41.1562L152.292 42.1365L152.299 42.135L152.094 41.1562ZM179.516 43.7344L178.969 44.5719L178.974 44.5751L179.516 43.7344ZM186.219 85.7812L185.451 86.4214L185.462 86.4353L185.474 86.4488L186.219 85.7812ZM191.094 87.1406H192.094V86.1406H191.094V87.1406ZM191.094 93V94H192.094V93H191.094ZM169.672 93L168.758 93.4054L169.021 94H169.672V93ZM167.281 87.6094L168.195 87.204L167.932 86.6094H167.281V87.6094ZM166.297 87.6094V86.6094H165.841L165.542 86.9539L166.297 87.6094ZM158.141 93.4219L157.926 92.4452L157.922 92.4462L158.141 93.4219ZM166.438 67.8281H167.438V66.7128L166.329 66.8341L166.438 67.8281ZM163.438 68.1562L163.507 69.1538L163.527 69.1525L163.546 69.1503L163.438 68.1562ZM157.859 70.9688L157.006 70.4473L156.999 70.4589L157.859 70.9688ZM152.516 93.9375V92.9375C149.877 92.9375 147.503 92.3903 145.374 91.3112L144.922 92.2031L144.47 93.0951C146.903 94.3284 149.591 94.9375 152.516 94.9375V93.9375ZM144.922 92.2031L145.359 91.3039C143.234 90.2702 141.534 88.6778 140.253 86.494L139.391 87L138.528 87.506C139.997 90.0097 141.984 91.8861 144.484 93.1024L144.922 92.2031ZM139.391 87L140.253 86.494C138.992 84.3443 138.328 81.5791 138.328 78.1406H137.328H136.328C136.328 81.8271 137.039 84.9682 138.528 87.506L139.391 87ZM137.328 78.1406H138.328C138.328 73.0658 139.985 69.5033 143.159 67.2356L142.578 66.4219L141.997 65.6081C138.172 68.3405 136.328 72.5905 136.328 78.1406H137.328ZM142.578 66.4219L143.156 67.238C146.455 64.9022 151.554 63.5434 158.598 63.2963L158.562 62.2969L158.527 61.2975C151.321 61.5503 145.763 62.9415 142 65.6057L142.578 66.4219ZM158.562 62.2969L158.605 63.296L166.339 62.9679L166.297 61.9688L166.254 60.9696L158.52 61.2978L158.562 62.2969ZM166.297 61.9688H167.297V57H166.297H165.297V61.9688H166.297ZM166.297 57H167.297C167.297 53.4583 166.892 50.6799 165.979 48.7849L165.078 49.2188L164.177 49.6526C164.89 51.1326 165.297 53.5417 165.297 57H166.297ZM165.078 49.2188L165.969 48.7648C165.488 47.8195 164.859 47.0514 164.06 46.5218C163.254 45.988 162.331 45.7344 161.328 45.7344V46.7344V47.7344C161.981 47.7344 162.511 47.8948 162.956 48.1891C163.406 48.4877 163.825 48.9618 164.187 49.6727L165.078 49.2188ZM161.328 46.7344V45.7344C159.317 45.7344 157.821 46.9084 156.828 48.8588L157.719 49.3125L158.61 49.7662C159.367 48.2791 160.277 47.7344 161.328 47.7344V46.7344ZM157.719 49.3125L156.831 48.8526C155.816 50.8124 155.359 53.5641 155.359 57H156.359H157.359C157.359 53.6859 157.809 51.3126 158.607 49.7724L157.719 49.3125ZM156.359 57V56C151.366 56 147.759 55.4838 145.444 54.5287L145.062 55.4531L144.681 56.3776C147.366 57.4849 151.29 58 156.359 58V57ZM145.062 55.4531L145.448 54.5304C144.34 54.0675 143.581 53.4811 143.097 52.8073C142.619 52.1407 142.359 51.3205 142.359 50.2969H141.359H140.359C140.359 51.6795 140.717 52.9218 141.473 53.974C142.223 55.0189 143.316 55.8075 144.677 56.3759L145.062 55.4531ZM141.359 50.2969H142.359C142.359 48.1771 143.194 46.5003 144.919 45.1861L144.312 44.3906L143.706 43.5952C141.494 45.2809 140.359 47.5417 140.359 50.2969H141.359ZM144.312 44.3906L144.925 45.1813C146.705 43.8027 149.142 42.7725 152.292 42.1365L152.094 41.1562L151.896 40.176C148.546 40.8525 145.795 41.9785 143.7 43.5999L144.312 44.3906ZM152.094 41.1562L152.299 42.135C155.502 41.4639 159.057 41.125 162.969 41.125V40.125V39.125C158.943 39.125 155.248 39.4736 151.889 40.1775L152.094 41.1562ZM162.969 40.125V41.125C170.235 41.125 175.52 42.321 178.969 44.5718L179.516 43.7344L180.062 42.8969C176.136 40.3352 170.39 39.125 162.969 39.125V40.125ZM179.516 43.7344L178.974 44.5751C182.278 46.7029 184.047 50.4854 184.047 56.25H185.047H186.047C186.047 50.0771 184.128 45.5158 180.057 42.8937L179.516 43.7344ZM185.047 56.25H184.047V80.4375H185.047H186.047V56.25H185.047ZM185.047 80.4375H184.047C184.047 81.7935 184.147 82.9721 184.363 83.9564C184.577 84.9325 184.919 85.7836 185.451 86.4214L186.219 85.7812L186.987 85.1411C186.737 84.8414 186.493 84.3331 186.317 83.528C186.142 82.731 186.047 81.7065 186.047 80.4375H185.047ZM186.219 85.7812L185.474 86.4488C186.582 87.6844 188.458 88.1406 190.719 88.1406V87.1406V86.1406C188.605 86.1406 187.481 85.6906 186.963 85.1137L186.219 85.7812ZM190.719 87.1406V88.1406H191.094V87.1406V86.1406H190.719V87.1406ZM191.094 87.1406H190.094V93H191.094H192.094V87.1406H191.094ZM191.094 93V92H169.672V93V94H191.094V93ZM169.672 93L170.586 92.5946L168.195 87.204L167.281 87.6094L166.367 88.0148L168.758 93.4054L169.672 93ZM167.281 87.6094V86.6094H166.297V87.6094V88.6094H167.281V87.6094ZM166.297 87.6094L165.542 86.9539C164.131 88.5791 162.851 89.8238 161.703 90.7074L162.312 91.5L162.922 92.2926C164.211 91.3012 165.588 89.9521 167.052 88.2648L166.297 87.6094ZM162.312 91.5L161.703 90.7074C160.605 91.5516 159.351 92.1317 157.926 92.4452L158.141 93.4219L158.355 94.3985C160.056 94.0245 161.582 93.3234 162.922 92.2926L162.312 91.5ZM158.141 93.4219L157.922 92.4462C156.485 92.7687 154.688 92.9375 152.516 92.9375V93.9375V94.9375C154.78 94.9375 156.734 94.7626 158.36 94.3976L158.141 93.4219ZM160.062 86.2031V87.2031C162.455 87.2031 164.295 85.8702 165.579 83.5459L164.703 83.0625L163.828 82.5791C162.799 84.4423 161.545 85.2031 160.062 85.2031V86.2031ZM164.703 83.0625L165.579 83.5459C166.846 81.2513 167.438 78.268 167.438 74.6719H166.438H165.438C165.438 78.0757 164.873 80.6862 163.828 82.5791L164.703 83.0625ZM166.438 74.6719H167.438V67.8281H166.438H165.438V74.6719H166.438ZM166.438 67.8281L166.329 66.8341L163.329 67.1622L163.438 68.1562L163.546 69.1503L166.546 68.8222L166.438 67.8281ZM163.438 68.1562L163.368 67.1587C160.485 67.3598 158.263 68.3904 157.006 70.4473L157.859 70.9688L158.713 71.4902C159.518 70.1721 161.015 69.3277 163.507 69.1538L163.438 68.1562ZM157.859 70.9688L156.999 70.4589C155.865 72.3723 155.359 75.0683 155.359 78.4219H156.359H157.359C157.359 75.2129 157.854 72.9402 158.72 71.4786L157.859 70.9688ZM156.359 78.4219H155.359C155.359 81.0631 155.669 83.188 156.382 84.6875C156.745 85.4506 157.231 86.0891 157.869 86.5359C158.515 86.9887 159.26 87.2031 160.062 87.2031V86.2031V85.2031C159.631 85.2031 159.295 85.0933 159.016 84.8977C158.728 84.696 158.442 84.3619 158.188 83.8281C157.667 82.7339 157.359 80.9681 157.359 78.4219H156.359ZM203.422 31.5938L202.861 32.4217L202.867 32.4258L203.422 31.5938ZM203.422 20.2969L202.886 19.4526L202.88 19.4566L203.422 20.2969ZM217.859 20.2969L217.335 21.1486L217.341 21.1521L217.859 20.2969ZM217.859 31.5938L217.322 30.7501L217.317 30.7538L217.859 31.5938ZM227.609 87.1406H228.609V86.1406H227.609V87.1406ZM227.609 93V94H228.609V93H227.609ZM194.656 93H193.656V94H194.656V93ZM194.656 87.1406V86.1406H193.656V87.1406H194.656ZM200.188 85.6406L200.852 86.388L200.858 86.383L200.863 86.3778L200.188 85.6406ZM194 47.3906H193V48.3906H194V47.3906ZM194 41.5312V40.5312H193V41.5312H194ZM220.484 41.5312H221.484V40.5312H220.484V41.5312ZM222.172 85.7344L221.519 86.4921L221.525 86.4974L221.532 86.5026L222.172 85.7344ZM210.688 33.5625V32.5625C207.967 32.5625 205.749 31.9431 203.977 30.7617L203.422 31.5938L202.867 32.4258C205.033 33.8694 207.658 34.5625 210.688 34.5625V33.5625ZM203.422 31.5938L203.983 30.7658C202.333 29.6484 201.516 28.091 201.516 25.9688H200.516H199.516C199.516 28.7215 200.636 30.9141 202.861 32.4217L203.422 31.5938ZM200.516 25.9688H201.516C201.516 23.7377 202.344 22.1826 203.964 21.1372L203.422 20.2969L202.88 19.4566C200.625 20.9111 199.516 23.1373 199.516 25.9688H200.516ZM203.422 20.2969L203.958 21.1411C205.733 20.0142 207.958 19.4219 210.688 19.4219V18.4219V17.4219C207.667 17.4219 205.049 18.0795 202.886 19.4527L203.422 20.2969ZM210.688 18.4219V19.4219C213.281 19.4219 215.485 20.0096 217.335 21.1485L217.859 20.2969L218.383 19.4452C216.172 18.0841 213.594 17.4219 210.688 17.4219V18.4219ZM217.859 20.2969L217.341 21.1521C219.087 22.2102 219.953 23.7661 219.953 25.9688H220.953H221.953C221.953 23.1089 220.757 20.8836 218.378 19.4417L217.859 20.2969ZM220.953 25.9688H219.953C219.953 28.0631 219.098 29.6205 217.322 30.7501L217.859 31.5938L218.396 32.4374C220.746 30.942 221.953 28.7494 221.953 25.9688H220.953ZM217.859 31.5938L217.317 30.7538C215.469 31.948 213.272 32.5625 210.688 32.5625V33.5625V34.5625C213.603 34.5625 216.188 33.8645 218.402 32.4337L217.859 31.5938ZM227.609 87.1406H226.609V93H227.609H228.609V87.1406H227.609ZM227.609 93V92H194.656V93V94H227.609V93ZM194.656 93H195.656V87.1406H194.656H193.656V93H194.656ZM194.656 87.1406V88.1406H195.828V87.1406V86.1406H194.656V87.1406ZM195.828 87.1406V88.1406C197.807 88.1406 199.511 87.5797 200.852 86.388L200.188 85.6406L199.523 84.8932C198.614 85.7015 197.412 86.1406 195.828 86.1406V87.1406ZM200.188 85.6406L200.863 86.3778C202.306 85.0549 202.875 82.8309 202.875 80.0625H201.875H200.875C200.875 82.6691 200.319 84.1638 199.512 84.9035L200.188 85.6406ZM201.875 80.0625H202.875V53.7188H201.875H200.875V80.0625H201.875ZM201.875 53.7188H202.875C202.875 51.2471 202.269 49.2349 200.77 48.0201L200.141 48.7969L199.511 49.5736C200.325 50.2338 200.875 51.5029 200.875 53.7188H201.875ZM200.141 48.7969L200.77 48.0201C199.409 46.9163 197.739 46.3906 195.828 46.3906V47.3906V48.3906C197.355 48.3906 198.56 48.8024 199.511 49.5736L200.141 48.7969ZM195.828 47.3906V46.3906H194V47.3906V48.3906H195.828V47.3906ZM194 47.3906H195V41.5312H194H193V47.3906H194ZM194 41.5312V42.5312H220.484V41.5312V40.5312H194V41.5312ZM220.484 41.5312H219.484V80.4375H220.484H221.484V41.5312H220.484ZM220.484 80.4375H219.484C219.484 83.0897 220.057 85.2328 221.519 86.4921L222.172 85.7344L222.824 84.9766C222.037 84.2985 221.484 82.9103 221.484 80.4375H220.484ZM222.172 85.7344L221.532 86.5026C222.873 87.6204 224.569 88.1406 226.531 88.1406V87.1406V86.1406C224.931 86.1406 223.721 85.7234 222.812 84.9662L222.172 85.7344ZM226.531 87.1406V88.1406H227.609V87.1406V86.1406H226.531V87.1406Z" data-figma-gradient-fill="{&#34;type&#34;:&#34;GRADIENT_DIAMOND&#34;,&#34;stops&#34;:[{&#34;color&#34;:{&#34;r&#34;:0.0,&#34;g&#34;:0.60784316062927246,&#34;b&#34;:1.0,&#34;a&#34;:1.0},&#34;position&#34;:0.13942307233810425},{&#34;color&#34;:{&#34;r&#34;:0.40000000596046448,&#34;g&#34;:0.40000000596046448,&#34;b&#34;:0.40000000596046448,&#34;a&#34;:1.0},&#34;position&#34;:0.83058923482894897}],&#34;stopsVar&#34;:[{&#34;color&#34;:{&#34;r&#34;:0.0,&#34;g&#34;:0.60784316062927246,&#34;b&#34;:1.0,&#34;a&#34;:1.0},&#34;position&#34;:0.13942307233810425},{&#34;color&#34;:{&#34;r&#34;:0.40000000596046448,&#34;g&#34;:0.40000000596046448,&#34;b&#34;:0.40000000596046448,&#34;a&#34;:1.0},&#34;position&#34;:0.83058923482894897}],&#34;transform&#34;:{&#34;m00&#34;:0.85873603820800781,&#34;m01&#34;:-453.74844360351562,&#34;m02&#34;:340.51547241210938,&#34;m10&#34;:309.69998168945312,&#34;m11&#34;:2.3127748966217041,&#34;m12&#34;:-182.85638427734375},&#34;opacity&#34;:1.0,&#34;blendMode&#34;:&#34;NORMAL&#34;,&#34;visible&#34;:true}" mask="url(#path-1-outside-1_17_2)"/>
<defs>
<clipPath id="paint1_diamond_17_2_clip_path"><path d="M36 85.1875H37V84.1875H36V85.1875ZM36 93V94H37V93H36ZM1.6875 93H0.6875V94H1.6875V93ZM1.6875 85.1875V84.1875H0.6875V85.1875H1.6875ZM11.375 83.9375L11.905 84.7855L11.9119 84.7812L11.375 83.9375ZM11.4375 10.6875L10.8954 11.5278L10.911 11.5379L10.927 11.5474L11.4375 10.6875ZM1.6875 9.4375H0.6875V10.4375H1.6875V9.4375ZM1.6875 1.625V0.625H0.6875V1.625H1.6875ZM33.8125 1.625L34.6084 1.01959L34.3083 0.625H33.8125V1.625ZM78.5 60.375L77.7041 60.9804L79.5 63.3415V60.375H78.5ZM76.6875 11.0625L76.02 11.8071L76.0272 11.8136L76.0346 11.8199L76.6875 11.0625ZM66.8125 9.4375H65.8125V10.4375H66.8125V9.4375ZM66.8125 1.625V0.625H65.8125V1.625H66.8125ZM101.125 1.625H102.125V0.625H101.125V1.625ZM101.125 9.4375V10.4375H102.125V9.4375H101.125ZM91 11.25L90.2681 10.5686L90.2672 10.5695L91 11.25ZM89.375 93V94H90.375V93H89.375ZM75.6875 93L74.8886 93.6014L75.1886 94H75.6875V93ZM24.3125 24.75L25.1114 24.1486L23.3125 21.7588V24.75H24.3125ZM25.75 83.9375L25.0757 84.676L25.0847 84.6842L25.0938 84.6921L25.75 83.9375ZM36 85.1875H35V93H36H37V85.1875H36ZM36 93V92H1.6875V93V94H36V93ZM1.6875 93H2.6875V85.1875H1.6875H0.6875V93H1.6875ZM1.6875 85.1875V86.1875H5.9375V85.1875V84.1875H1.6875V85.1875ZM5.9375 85.1875V86.1875C8.33576 86.1875 10.3559 85.7537 11.905 84.7855L11.375 83.9375L10.845 83.0895C9.72748 83.788 8.12258 84.1875 5.9375 84.1875V85.1875ZM11.375 83.9375L11.9119 84.7812C12.8603 84.1776 13.4862 83.1879 13.8742 81.977C14.2614 80.7685 14.4375 79.2642 14.4375 77.5H13.4375H12.4375C12.4375 79.1525 12.2699 80.4294 11.9696 81.3668C11.67 82.3017 11.2647 82.8224 10.8381 83.0938L11.375 83.9375ZM13.4375 77.5H14.4375V16.5625H13.4375H12.4375V77.5H13.4375ZM13.4375 16.5625H14.4375C14.4375 14.9405 14.266 13.5493 13.8841 12.4277C13.5 11.2992 12.8793 10.3806 11.948 9.82765L11.4375 10.6875L10.927 11.5474C11.3291 11.7861 11.7084 12.2425 11.9909 13.0723C12.2757 13.909 12.4375 15.0595 12.4375 16.5625H13.4375ZM11.4375 10.6875L11.9796 9.8472C10.5169 8.90354 8.86827 8.4375 7.0625 8.4375V9.4375V10.4375C8.50673 10.4375 9.77473 10.8048 10.8954 11.5278L11.4375 10.6875ZM7.0625 9.4375V8.4375H1.6875V9.4375V10.4375H7.0625V9.4375ZM1.6875 9.4375H2.6875V1.625H1.6875H0.6875V9.4375H1.6875ZM1.6875 1.625V2.625H33.8125V1.625V0.625H1.6875V1.625ZM33.8125 1.625L33.0166 2.23041L77.7041 60.9804L78.5 60.375L79.2959 59.7696L34.6084 1.01959L33.8125 1.625ZM78.5 60.375H79.5V16.5625H78.5H77.5V60.375H78.5ZM78.5 16.5625H79.5C79.5 13.8293 78.8775 11.6302 77.3404 10.3051L76.6875 11.0625L76.0346 11.8199C76.9141 12.5782 77.5 14.0457 77.5 16.5625H78.5ZM76.6875 11.0625L77.355 10.3179C75.953 9.06089 74.253 8.4375 72.3125 8.4375V9.4375V10.4375C73.7886 10.4375 75.0054 10.8974 76.02 11.8071L76.6875 11.0625ZM72.3125 9.4375V8.4375H66.8125V9.4375V10.4375H72.3125V9.4375ZM66.8125 9.4375H67.8125V1.625H66.8125H65.8125V9.4375H66.8125ZM66.8125 1.625V2.625H101.125V1.625V0.625H66.8125V1.625ZM101.125 1.625H100.125V9.4375H101.125H102.125V1.625H101.125ZM101.125 9.4375V8.4375H95.625V9.4375V10.4375H101.125V9.4375ZM95.625 9.4375V8.4375C93.4452 8.4375 91.6174 9.11932 90.2681 10.5686L91 11.25L91.7319 11.9314C92.6326 10.964 93.8881 10.4375 95.625 10.4375V9.4375ZM91 11.25L90.2672 10.5695C88.9241 12.016 88.375 14.2916 88.375 17.125H89.375H90.375C90.375 14.4584 90.9092 12.8174 91.7328 11.9305L91 11.25ZM89.375 17.125H88.375V93H89.375H90.375V17.125H89.375ZM89.375 93V92H75.6875V93V94H89.375V93ZM75.6875 93L76.4864 92.3986L25.1114 24.1486L24.3125 24.75L23.5136 25.3514L74.8886 93.6014L75.6875 93ZM24.3125 24.75H23.3125V77.5H24.3125H25.3125V24.75H24.3125ZM24.3125 77.5H23.3125C23.3125 79.2461 23.4341 80.7174 23.6959 81.8898C23.9524 83.0383 24.3721 84.0335 25.0757 84.676L25.75 83.9375L26.4243 83.199C26.1696 82.9665 25.8705 82.4513 25.6478 81.4539C25.4305 80.4805 25.3125 79.1706 25.3125 77.5H24.3125ZM25.75 83.9375L25.0938 84.6921C26.3275 85.7648 28.2126 86.1875 30.5 86.1875V85.1875V84.1875C28.3707 84.1875 27.0892 83.7768 26.4062 83.1829L25.75 83.9375ZM30.5 85.1875V86.1875H36V85.1875V84.1875H30.5V85.1875ZM111.172 92.0156L110.591 92.8294L110.599 92.8352L110.607 92.8409L111.172 92.0156ZM111.172 78.6094L110.607 77.784L110.6 77.7888L111.172 78.6094ZM124.156 78.6094L123.605 79.4436L123.611 79.4478L124.156 78.6094ZM124.156 92.0156L124.708 92.8499L124.711 92.8477L124.156 92.0156ZM117.781 93.8438V92.8438C115.314 92.8438 113.318 92.2726 111.737 91.1903L111.172 92.0156L110.607 92.8409C112.588 94.1961 114.999 94.8438 117.781 94.8438V93.8438ZM111.172 92.0156L111.753 91.2019C110.378 90.2196 109.547 88.3762 109.547 85.3125H108.547H107.547C107.547 88.6863 108.466 91.3117 110.591 92.8294L111.172 92.0156ZM108.547 85.3125H109.547C109.547 82.2108 110.381 80.3787 111.743 79.43L111.172 78.6094L110.6 77.7888C108.463 79.2775 107.547 81.9142 107.547 85.3125H108.547ZM111.172 78.6094L111.737 79.4347C113.318 78.3524 115.314 77.7812 117.781 77.7812V76.7812V75.7812C114.999 75.7812 112.588 76.4289 110.607 77.7841L111.172 78.6094ZM117.781 76.7812V77.7812C120.01 77.7812 121.939 78.3426 123.605 79.4436L124.156 78.6094L124.708 77.7752C122.686 76.4387 120.365 75.7812 117.781 75.7812V76.7812ZM124.156 78.6094L123.611 79.4478C125.087 80.4072 125.969 82.2357 125.969 85.3125H126.969H127.969C127.969 81.8893 126.975 79.249 124.701 77.7709L124.156 78.6094ZM126.969 85.3125H125.969C125.969 88.3515 125.09 90.1909 123.602 91.1836L124.156 92.0156L124.711 92.8477C126.972 91.3403 127.969 88.711 127.969 85.3125H126.969ZM124.156 92.0156L123.605 91.1814C121.939 92.2824 120.01 92.8438 117.781 92.8438V93.8438V94.8438C120.365 94.8438 122.686 94.1863 124.708 92.8498L124.156 92.0156ZM144.922 92.2031L145.374 91.3112L145.367 91.3075L145.359 91.3039L144.922 92.2031ZM142.578 66.4219L142 65.6057L141.997 65.6081L142.578 66.4219ZM158.562 62.2969L158.598 63.2963L158.605 63.296L158.562 62.2969ZM166.297 61.9688L166.339 62.9679L167.297 62.9272V61.9688H166.297ZM165.078 49.2188L165.979 48.7849L165.974 48.7748L165.969 48.7648L165.078 49.2188ZM157.719 49.3125L158.607 49.7724L158.61 49.7662L157.719 49.3125ZM156.359 57V58H157.359V57H156.359ZM145.062 55.4531L144.677 56.3759L144.681 56.3776L145.062 55.4531ZM144.312 44.3906L144.919 45.1861L144.925 45.1813L144.312 44.3906ZM152.094 41.1562L152.292 42.1365L152.299 42.135L152.094 41.1562ZM179.516 43.7344L178.969 44.5719L178.974 44.5751L179.516 43.7344ZM186.219 85.7812L185.451 86.4214L185.462 86.4353L185.474 86.4488L186.219 85.7812ZM191.094 87.1406H192.094V86.1406H191.094V87.1406ZM191.094 93V94H192.094V93H191.094ZM169.672 93L168.758 93.4054L169.021 94H169.672V93ZM167.281 87.6094L168.195 87.204L167.932 86.6094H167.281V87.6094ZM166.297 87.6094V86.6094H165.841L165.542 86.9539L166.297 87.6094ZM158.141 93.4219L157.926 92.4452L157.922 92.4462L158.141 93.4219ZM166.438 67.8281H167.438V66.7128L166.329 66.8341L166.438 67.8281ZM163.438 68.1562L163.507 69.1538L163.527 69.1525L163.546 69.1503L163.438 68.1562ZM157.859 70.9688L157.006 70.4473L156.999 70.4589L157.859 70.9688ZM152.516 93.9375V92.9375C149.877 92.9375 147.503 92.3903 145.374 91.3112L144.922 92.2031L144.47 93.0951C146.903 94.3284 149.591 94.9375 152.516 94.9375V93.9375ZM144.922 92.2031L145.359 91.3039C143.234 90.2702 141.534 88.6778 140.253 86.494L139.391 87L138.528 87.506C139.997 90.0097 141.984 91.8861 144.484 93.1024L144.922 92.2031ZM139.391 87L140.253 86.494C138.992 84.3443 138.328 81.5791 138.328 78.1406H137.328H136.328C136.328 81.8271 137.039 84.9682 138.528 87.506L139.391 87ZM137.328 78.1406H138.328C138.328 73.0658 139.985 69.5033 143.159 67.2356L142.578 66.4219L141.997 65.6081C138.172 68.3405 136.328 72.5905 136.328 78.1406H137.328ZM142.578 66.4219L143.156 67.238C146.455 64.9022 151.554 63.5434 158.598 63.2963L158.562 62.2969L158.527 61.2975C151.321 61.5503 145.763 62.9415 142 65.6057L142.578 66.4219ZM158.562 62.2969L158.605 63.296L166.339 62.9679L166.297 61.9688L166.254 60.9696L158.52 61.2978L158.562 62.2969ZM166.297 61.9688H167.297V57H166.297H165.297V61.9688H166.297ZM166.297 57H167.297C167.297 53.4583 166.892 50.6799 165.979 48.7849L165.078 49.2188L164.177 49.6526C164.89 51.1326 165.297 53.5417 165.297 57H166.297ZM165.078 49.2188L165.969 48.7648C165.488 47.8195 164.859 47.0514 164.06 46.5218C163.254 45.988 162.331 45.7344 161.328 45.7344V46.7344V47.7344C161.981 47.7344 162.511 47.8948 162.956 48.1891C163.406 48.4877 163.825 48.9618 164.187 49.6727L165.078 49.2188ZM161.328 46.7344V45.7344C159.317 45.7344 157.821 46.9084 156.828 48.8588L157.719 49.3125L158.61 49.7662C159.367 48.2791 160.277 47.7344 161.328 47.7344V46.7344ZM157.719 49.3125L156.831 48.8526C155.816 50.8124 155.359 53.5641 155.359 57H156.359H157.359C157.359 53.6859 157.809 51.3126 158.607 49.7724L157.719 49.3125ZM156.359 57V56C151.366 56 147.759 55.4838 145.444 54.5287L145.062 55.4531L144.681 56.3776C147.366 57.4849 151.29 58 156.359 58V57ZM145.062 55.4531L145.448 54.5304C144.34 54.0675 143.581 53.4811 143.097 52.8073C142.619 52.1407 142.359 51.3205 142.359 50.2969H141.359H140.359C140.359 51.6795 140.717 52.9218 141.473 53.974C142.223 55.0189 143.316 55.8075 144.677 56.3759L145.062 55.4531ZM141.359 50.2969H142.359C142.359 48.1771 143.194 46.5003 144.919 45.1861L144.312 44.3906L143.706 43.5952C141.494 45.2809 140.359 47.5417 140.359 50.2969H141.359ZM144.312 44.3906L144.925 45.1813C146.705 43.8027 149.142 42.7725 152.292 42.1365L152.094 41.1562L151.896 40.176C148.546 40.8525 145.795 41.9785 143.7 43.5999L144.312 44.3906ZM152.094 41.1562L152.299 42.135C155.502 41.4639 159.057 41.125 162.969 41.125V40.125V39.125C158.943 39.125 155.248 39.4736 151.889 40.1775L152.094 41.1562ZM162.969 40.125V41.125C170.235 41.125 175.52 42.321 178.969 44.5718L179.516 43.7344L180.062 42.8969C176.136 40.3352 170.39 39.125 162.969 39.125V40.125ZM179.516 43.7344L178.974 44.5751C182.278 46.7029 184.047 50.4854 184.047 56.25H185.047H186.047C186.047 50.0771 184.128 45.5158 180.057 42.8937L179.516 43.7344ZM185.047 56.25H184.047V80.4375H185.047H186.047V56.25H185.047ZM185.047 80.4375H184.047C184.047 81.7935 184.147 82.9721 184.363 83.9564C184.577 84.9325 184.919 85.7836 185.451 86.4214L186.219 85.7812L186.987 85.1411C186.737 84.8414 186.493 84.3331 186.317 83.528C186.142 82.731 186.047 81.7065 186.047 80.4375H185.047ZM186.219 85.7812L185.474 86.4488C186.582 87.6844 188.458 88.1406 190.719 88.1406V87.1406V86.1406C188.605 86.1406 187.481 85.6906 186.963 85.1137L186.219 85.7812ZM190.719 87.1406V88.1406H191.094V87.1406V86.1406H190.719V87.1406ZM191.094 87.1406H190.094V93H191.094H192.094V87.1406H191.094ZM191.094 93V92H169.672V93V94H191.094V93ZM169.672 93L170.586 92.5946L168.195 87.204L167.281 87.6094L166.367 88.0148L168.758 93.4054L169.672 93ZM167.281 87.6094V86.6094H166.297V87.6094V88.6094H167.281V87.6094ZM166.297 87.6094L165.542 86.9539C164.131 88.5791 162.851 89.8238 161.703 90.7074L162.312 91.5L162.922 92.2926C164.211 91.3012 165.588 89.9521 167.052 88.2648L166.297 87.6094ZM162.312 91.5L161.703 90.7074C160.605 91.5516 159.351 92.1317 157.926 92.4452L158.141 93.4219L158.355 94.3985C160.056 94.0245 161.582 93.3234 162.922 92.2926L162.312 91.5ZM158.141 93.4219L157.922 92.4462C156.485 92.7687 154.688 92.9375 152.516 92.9375V93.9375V94.9375C154.78 94.9375 156.734 94.7626 158.36 94.3976L158.141 93.4219ZM160.062 86.2031V87.2031C162.455 87.2031 164.295 85.8702 165.579 83.5459L164.703 83.0625L163.828 82.5791C162.799 84.4423 161.545 85.2031 160.062 85.2031V86.2031ZM164.703 83.0625L165.579 83.5459C166.846 81.2513 167.438 78.268 167.438 74.6719H166.438H165.438C165.438 78.0757 164.873 80.6862 163.828 82.5791L164.703 83.0625ZM166.438 74.6719H167.438V67.8281H166.438H165.438V74.6719H166.438ZM166.438 67.8281L166.329 66.8341L163.329 67.1622L163.438 68.1562L163.546 69.1503L166.546 68.8222L166.438 67.8281ZM163.438 68.1562L163.368 67.1587C160.485 67.3598 158.263 68.3904 157.006 70.4473L157.859 70.9688L158.713 71.4902C159.518 70.1721 161.015 69.3277 163.507 69.1538L163.438 68.1562ZM157.859 70.9688L156.999 70.4589C155.865 72.3723 155.359 75.0683 155.359 78.4219H156.359H157.359C157.359 75.2129 157.854 72.9402 158.72 71.4786L157.859 70.9688ZM156.359 78.4219H155.359C155.359 81.0631 155.669 83.188 156.382 84.6875C156.745 85.4506 157.231 86.0891 157.869 86.5359C158.515 86.9887 159.26 87.2031 160.062 87.2031V86.2031V85.2031C159.631 85.2031 159.295 85.0933 159.016 84.8977C158.728 84.696 158.442 84.3619 158.188 83.8281C157.667 82.7339 157.359 80.9681 157.359 78.4219H156.359ZM203.422 31.5938L202.861 32.4217L202.867 32.4258L203.422 31.5938ZM203.422 20.2969L202.886 19.4526L202.88 19.4566L203.422 20.2969ZM217.859 20.2969L217.335 21.1486L217.341 21.1521L217.859 20.2969ZM217.859 31.5938L217.322 30.7501L217.317 30.7538L217.859 31.5938ZM227.609 87.1406H228.609V86.1406H227.609V87.1406ZM227.609 93V94H228.609V93H227.609ZM194.656 93H193.656V94H194.656V93ZM194.656 87.1406V86.1406H193.656V87.1406H194.656ZM200.188 85.6406L200.852 86.388L200.858 86.383L200.863 86.3778L200.188 85.6406ZM194 47.3906H193V48.3906H194V47.3906ZM194 41.5312V40.5312H193V41.5312H194ZM220.484 41.5312H221.484V40.5312H220.484V41.5312ZM222.172 85.7344L221.519 86.4921L221.525 86.4974L221.532 86.5026L222.172 85.7344ZM210.688 33.5625V32.5625C207.967 32.5625 205.749 31.9431 203.977 30.7617L203.422 31.5938L202.867 32.4258C205.033 33.8694 207.658 34.5625 210.688 34.5625V33.5625ZM203.422 31.5938L203.983 30.7658C202.333 29.6484 201.516 28.091 201.516 25.9688H200.516H199.516C199.516 28.7215 200.636 30.9141 202.861 32.4217L203.422 31.5938ZM200.516 25.9688H201.516C201.516 23.7377 202.344 22.1826 203.964 21.1372L203.422 20.2969L202.88 19.4566C200.625 20.9111 199.516 23.1373 199.516 25.9688H200.516ZM203.422 20.2969L203.958 21.1411C205.733 20.0142 207.958 19.4219 210.688 19.4219V18.4219V17.4219C207.667 17.4219 205.049 18.0795 202.886 19.4527L203.422 20.2969ZM210.688 18.4219V19.4219C213.281 19.4219 215.485 20.0096 217.335 21.1485L217.859 20.2969L218.383 19.4452C216.172 18.0841 213.594 17.4219 210.688 17.4219V18.4219ZM217.859 20.2969L217.341 21.1521C219.087 22.2102 219.953 23.7661 219.953 25.9688H220.953H221.953C221.953 23.1089 220.757 20.8836 218.378 19.4417L217.859 20.2969ZM220.953 25.9688H219.953C219.953 28.0631 219.098 29.6205 217.322 30.7501L217.859 31.5938L218.396 32.4374C220.746 30.942 221.953 28.7494 221.953 25.9688H220.953ZM217.859 31.5938L217.317 30.7538C215.469 31.948 213.272 32.5625 210.688 32.5625V33.5625V34.5625C213.603 34.5625 216.188 33.8645 218.402 32.4337L217.859 31.5938ZM227.609 87.1406H226.609V93H227.609H228.609V87.1406H227.609ZM227.609 93V92H194.656V93V94H227.609V93ZM194.656 93H195.656V87.1406H194.656H193.656V93H194.656ZM194.656 87.1406V88.1406H195.828V87.1406V86.1406H194.656V87.1406ZM195.828 87.1406V88.1406C197.807 88.1406 199.511 87.5797 200.852 86.388L200.188 85.6406L199.523 84.8932C198.614 85.7015 197.412 86.1406 195.828 86.1406V87.1406ZM200.188 85.6406L200.863 86.3778C202.306 85.0549 202.875 82.8309 202.875 80.0625H201.875H200.875C200.875 82.6691 200.319 84.1638 199.512 84.9035L200.188 85.6406ZM201.875 80.0625H202.875V53.7188H201.875H200.875V80.0625H201.875ZM201.875 53.7188H202.875C202.875 51.2471 202.269 49.2349 200.77 48.0201L200.141 48.7969L199.511 49.5736C200.325 50.2338 200.875 51.5029 200.875 53.7188H201.875ZM200.141 48.7969L200.77 48.0201C199.409 46.9163 197.739 46.3906 195.828 46.3906V47.3906V48.3906C197.355 48.3906 198.56 48.8024 199.511 49.5736L200.141 48.7969ZM195.828 47.3906V46.3906H194V47.3906V48.3906H195.828V47.3906ZM194 47.3906H195V41.5312H194H193V47.3906H194ZM194 41.5312V42.5312H220.484V41.5312V40.5312H194V41.5312ZM220.484 41.5312H219.484V80.4375H220.484H221.484V41.5312H220.484ZM220.484 80.4375H219.484C219.484 83.0897 220.057 85.2328 221.519 86.4921L222.172 85.7344L222.824 84.9766C222.037 84.2985 221.484 82.9103 221.484 80.4375H220.484ZM222.172 85.7344L221.532 86.5026C222.873 87.6204 224.569 88.1406 226.531 88.1406V87.1406V86.1406C224.931 86.1406 223.721 85.7234 222.812 84.9662L222.172 85.7344ZM226.531 87.1406V88.1406H227.609V87.1406V86.1406H226.531V87.1406Z" mask="url(#path-1-outside-1_17_2)"/></clipPath><linearGradient id="paint0_linear_17_2" x1="230" y1="46.5093" x2="-0.999975" y2="46.4074" gradientUnits="userSpaceOnUse">
<stop stop-color="#0096F9"/>
<stop offset="0.497574" stop-color="#88C6FF"/>
<stop offset="0.913462" stop-color="#0082FF"/>
</linearGradient>
<linearGradient id="paint1_diamond_17_2" x1="0" y1="0" x2="500" y2="500" gradientUnits="userSpaceOnUse">
<stop offset="0.139423" stop-color="#009BFF"/>
<stop offset="0.830589" stop-color="#666666"/>
</linearGradient>
</defs>
</svg>
